# xmcd
#
# Track frame offsets:
# 150
# 21038
# 38962
# 55329
# 74595
# 98834
# 112558
# 130453
# 146163
# 161035
#
# Disc length: 2339 seconds
#
#
# Revision: 0
# Processed by: cddbd v1.5PL3 Copyright (c) Steve Scherf et al.
# Submitted via: FreeRIP 2.53 
#
DISCID=8c09210a
DTITLE=Judds, The - Love Can Build A Bridge
DYEAR=1900
DGENRE=Country
TTITLE0=Born To Be Blue
TTITLE1=Calling In The Wind
TTITLE2=In My Dreams
TTITLE3=Rompin Stompin Blues
TTITLE4=Love Can Build A Bridge
TTITLE5=This Country's Rockin
TTITLE6=One Hundred And Two
TTITLE7=John Deere Tractor
TTITLE8=Talk About Love
TTITLE9=Are The Roses Not Blooming
EXTD=
EXTT0=
EXTT1=
EXTT2=
EXTT3=
EXTT4=
EXTT5=
EXTT6=
EXTT7=
EXTT8=
EXTT9=
PLAYORDER=
